# xmcd CD database file
#
# Track frame offsets:
#	150
#	13675
#	30475
#	45850
#	60287
#	77875
#	95613
#	116125
#	130750
#	146838
#	162364
#	179801
#	195775
#	211638
#	228626
#	250863
#
# Disc length: 3556 seconds
#
# Revision: 4
# Processed by: cddbd v1.5.2PL0 Copyright (c) Steve Scherf et al.
# Submitted via: cdripper 1,0,43,1226
#
DISCID=d00de210
DTITLE=Various Artist - 女人心事 CD-1
DYEAR=2005
DGENRE=粵語流行
TTITLE0=好心分手/盧巧音
TTITLE1=野孩子/楊千嬅
TTITLE2=終身美麗/鄭秀文
TTITLE3=有福氣/陳慧淋
TTITLE4=讓我跟你走/彭羚
TTITLE5=一切也願意/關淑怡
TTITLE6=愛與痛的邊緣/王菲
TTITLE7=愛/莫文蔚
TTITLE8=任何天氣/張柏芝
TTITLE9=問候/黎瑞恩
TTITLE10=不會哭於你面前/楊采妮
TTITLE11=無可奉告/何嘉麗
TTITLE12=絕戀/蔡立兒
TTITLE13=深夜港灣/甄楚倩
TTITLE14=偶遇/林志美
TTITLE15=午夜情/劉美君
EXTD=YEAR: 2005
EXTT0=
EXTT1=
EXTT2=
EXTT3=
EXTT4=
EXTT5=
EXTT6=
EXTT7=
EXTT8=
EXTT9=
EXTT10=
EXTT11=
EXTT12=
EXTT13=
EXTT14=
EXTT15=
PLAYORDER=
